{
 "cells": [
  {
   "cell_type": "code",
   "execution_count": null,
   "id": "424d58a7",
   "metadata": {},
   "outputs": [],
   "source": []
  },
  {
   "cell_type": "code",
   "execution_count": 1,
   "id": "33bf499f",
   "metadata": {},
   "outputs": [],
   "source": [
    "subjects = [\"cyberpunk\", \"holographic\", \"glitch\", \"vaporwave\"]\n",
    "styles = [\"Im\"]"
   ]
  },
  {
   "cell_type": "code",
   "execution_count": 19,
   "id": "0e86ae35",
   "metadata": {},
   "outputs": [
    {
     "name": "stdout",
     "output_type": "stream",
     "text": [
      "Working with z of shape (1, 256, 16, 16) = 65536 dimensions.\n",
      "loaded pretrained LPIPS loss from taming/modules/autoencoder/lpips/vgg.pth\n",
      "VQLPIPSWithDiscriminator running with hinge loss.\n",
      "Restored from checkpoints/vqgan_imagenet_f16_16384.ckpt\n",
      "Using device: cuda:0\n",
      "Optimising using: Adam\n",
      "Using text prompts: ['office scene in the motion blur style ', ' office scene in the Gaussian blur style']\n",
      "Using seed: 64\n",
      "i: 0, loss: 1.7779, losses: 0.897499, 0.880404\n",
      "i: 1, loss: 1.82169, losses: 0.918127, 0.90356\n",
      "i: 2, loss: 1.77971, losses: 0.898403, 0.881311\n",
      "i: 3, loss: 1.76923, losses: 0.892444, 0.876784\n",
      "i: 4, loss: 1.75306, losses: 0.883046, 0.870018\n",
      "i: 5, loss: 1.75969, losses: 0.885363, 0.874324\n",
      "i: 6, loss: 1.74624, losses: 0.878049, 0.86819\n",
      "i: 7, loss: 1.72227, losses: 0.864249, 0.858024\n",
      "i: 8, loss: 1.71424, losses: 0.860574, 0.853661\n",
      "i: 9, loss: 1.69963, losses: 0.851633, 0.847993\n",
      "i: 10, loss: 1.72862, losses: 0.868627, 0.85999\n",
      "i: 11, loss: 1.70311, losses: 0.850716, 0.852396\n",
      "i: 12, loss: 1.70039, losses: 0.854836, 0.845552\n",
      "i: 13, loss: 1.65883, losses: 0.832706, 0.826125\n",
      "i: 14, loss: 1.69936, losses: 0.855843, 0.843513\n",
      "i: 15, loss: 1.62934, losses: 0.815661, 0.813675\n",
      "i: 16, loss: 1.65637, losses: 0.830833, 0.825534\n",
      "i: 17, loss: 1.587, losses: 0.795381, 0.791618\n",
      "i: 18, loss: 1.62737, losses: 0.819195, 0.808179\n",
      "i: 19, loss: 1.58951, losses: 0.794373, 0.795132\n",
      "i: 20, loss: 1.61259, losses: 0.807198, 0.805387\n",
      "i: 21, loss: 1.61291, losses: 0.809474, 0.803438\n",
      "i: 22, loss: 1.63617, losses: 0.820312, 0.815857\n",
      "i: 23, loss: 1.58443, losses: 0.794566, 0.789866\n",
      "i: 24, loss: 1.60993, losses: 0.808564, 0.801367\n",
      "i: 25, loss: 1.57483, losses: 0.789365, 0.785468\n",
      "i: 26, loss: 1.59624, losses: 0.802017, 0.79422\n",
      "i: 27, loss: 1.58449, losses: 0.793177, 0.791316\n",
      "i: 28, loss: 1.51065, losses: 0.753725, 0.75692\n",
      "i: 29, loss: 1.59309, losses: 0.798305, 0.794783\n",
      "i: 30, loss: 1.52025, losses: 0.758212, 0.762037\n",
      "i: 31, loss: 1.54963, losses: 0.778351, 0.771275\n",
      "i: 32, loss: 1.60135, losses: 0.801408, 0.799943\n",
      "i: 33, loss: 1.61511, losses: 0.806325, 0.808789\n",
      "i: 34, loss: 1.51877, losses: 0.760369, 0.758401\n",
      "i: 35, loss: 1.6092, losses: 0.807486, 0.801717\n",
      "i: 36, loss: 1.53527, losses: 0.769953, 0.765319\n",
      "i: 37, loss: 1.58863, losses: 0.794163, 0.794468\n",
      "i: 38, loss: 1.55309, losses: 0.777421, 0.775672\n",
      "i: 39, loss: 1.55055, losses: 0.780577, 0.769977\n",
      "i: 40, loss: 1.5592, losses: 0.777719, 0.781486\n",
      "i: 41, loss: 1.46895, losses: 0.732621, 0.736327\n",
      "i: 42, loss: 1.59547, losses: 0.796718, 0.798751\n",
      "i: 43, loss: 1.55775, losses: 0.778713, 0.779041\n",
      "i: 44, loss: 1.54329, losses: 0.770941, 0.772351\n",
      "i: 45, loss: 1.48059, losses: 0.739243, 0.74135\n",
      "i: 46, loss: 1.46727, losses: 0.733653, 0.733619\n",
      "i: 47, loss: 1.5257, losses: 0.763171, 0.762528\n",
      "i: 48, loss: 1.5824, losses: 0.793118, 0.789282\n",
      "i: 49, loss: 1.57588, losses: 0.787262, 0.788621\n",
      "i: 50, loss: 1.54758, losses: 0.774245, 0.773333\n",
      "i: 51, loss: 1.46053, losses: 0.727236, 0.733298\n",
      "i: 52, loss: 1.58532, losses: 0.790017, 0.795302\n",
      "i: 53, loss: 1.44761, losses: 0.721911, 0.725701\n",
      "i: 54, loss: 1.4391, losses: 0.717506, 0.72159\n",
      "i: 55, loss: 1.45999, losses: 0.72808, 0.731914\n",
      "i: 56, loss: 1.50765, losses: 0.754377, 0.753271\n",
      "i: 57, loss: 1.43351, losses: 0.714566, 0.718945\n",
      "i: 58, loss: 1.42185, losses: 0.708659, 0.713191\n",
      "i: 59, loss: 1.53506, losses: 0.769692, 0.765369\n",
      "i: 60, loss: 1.56208, losses: 0.781398, 0.780684\n",
      "i: 61, loss: 1.44709, losses: 0.722809, 0.724276\n",
      "i: 62, loss: 1.51477, losses: 0.758921, 0.755844\n",
      "i: 63, loss: 1.4106, losses: 0.702117, 0.708483\n",
      "i: 64, loss: 1.46764, losses: 0.732966, 0.73467\n",
      "i: 65, loss: 1.64716, losses: 0.823071, 0.824091\n",
      "i: 66, loss: 1.5067, losses: 0.752469, 0.754233\n",
      "i: 67, loss: 1.50713, losses: 0.757587, 0.749547\n",
      "i: 68, loss: 1.49198, losses: 0.746773, 0.745208\n",
      "i: 69, loss: 1.44264, losses: 0.722751, 0.719892\n",
      "i: 70, loss: 1.54308, losses: 0.769212, 0.773869\n",
      "i: 71, loss: 1.61054, losses: 0.809164, 0.801374\n",
      "i: 72, loss: 1.54922, losses: 0.775182, 0.774043\n",
      "i: 73, loss: 1.46332, losses: 0.729414, 0.733905\n",
      "i: 74, loss: 1.56943, losses: 0.783818, 0.785613\n",
      "i: 75, loss: 1.41145, losses: 0.705454, 0.706\n",
      "i: 76, loss: 1.5834, losses: 0.788423, 0.794978\n",
      "i: 77, loss: 1.61196, losses: 0.807598, 0.804361\n",
      "i: 78, loss: 1.45947, losses: 0.729691, 0.729784\n",
      "i: 79, loss: 1.54311, losses: 0.772465, 0.770641\n",
      "i: 80, loss: 1.46974, losses: 0.732192, 0.737545\n",
      "i: 81, loss: 1.61762, losses: 0.814075, 0.803548\n",
      "i: 82, loss: 1.40616, losses: 0.703164, 0.702992\n",
      "i: 83, loss: 1.59819, losses: 0.801887, 0.796301\n",
      "i: 84, loss: 1.53024, losses: 0.764349, 0.765893\n",
      "i: 85, loss: 1.40142, losses: 0.69642, 0.705005\n",
      "i: 86, loss: 1.47965, losses: 0.735327, 0.744321\n",
      "i: 87, loss: 1.43234, losses: 0.714011, 0.718328\n",
      "i: 88, loss: 1.44513, losses: 0.722846, 0.72228\n",
      "i: 89, loss: 1.46668, losses: 0.730424, 0.73626\n",
      "i: 90, loss: 1.52886, losses: 0.764781, 0.764077\n",
      "i: 91, loss: 1.45874, losses: 0.729451, 0.729287\n",
      "i: 92, loss: 1.52709, losses: 0.762622, 0.764473\n",
      "i: 93, loss: 1.5286, losses: 0.766063, 0.762541\n",
      "i: 94, loss: 1.39501, losses: 0.695739, 0.69927\n",
      "i: 95, loss: 1.50389, losses: 0.754336, 0.749554\n",
      "i: 96, loss: 1.5256, losses: 0.765611, 0.759987\n",
      "i: 97, loss: 1.39, losses: 0.694248, 0.695748\n",
      "i: 98, loss: 1.38252, losses: 0.690489, 0.69203\n",
      "i: 99, loss: 1.43608, losses: 0.715106, 0.720979\n",
      "i: 100, loss: 1.37548, losses: 0.682928, 0.692556\n",
      "i: 101, loss: 1.65506, losses: 0.831781, 0.823275\n",
      "i: 102, loss: 1.36283, losses: 0.676964, 0.685867\n",
      "i: 103, loss: 1.37146, losses: 0.681505, 0.689959\n",
      "i: 104, loss: 1.47678, losses: 0.733078, 0.743701\n",
      "i: 105, loss: 1.53856, losses: 0.771816, 0.766749\n",
      "i: 106, loss: 1.516, losses: 0.760872, 0.75513\n",
      "i: 107, loss: 1.37993, losses: 0.686596, 0.693332\n",
      "i: 108, loss: 1.36175, losses: 0.676995, 0.684752\n",
      "i: 109, loss: 1.57937, losses: 0.784544, 0.794826\n",
      "i: 110, loss: 1.60663, losses: 0.804303, 0.802327\n",
      "i: 111, loss: 1.37675, losses: 0.681984, 0.69477\n",
      "i: 112, loss: 1.5288, losses: 0.761444, 0.767354\n",
      "i: 113, loss: 1.58428, losses: 0.789081, 0.795201\n",
      "i: 114, loss: 1.46081, losses: 0.73097, 0.729842\n",
      "i: 115, loss: 1.65374, losses: 0.828593, 0.825143\n",
      "i: 116, loss: 1.39784, losses: 0.699491, 0.698353\n",
      "i: 117, loss: 1.44094, losses: 0.723739, 0.7172\n",
      "i: 118, loss: 1.5486, losses: 0.774758, 0.773839\n",
      "i: 119, loss: 1.4958, losses: 0.752693, 0.743109\n",
      "i: 120, loss: 1.52035, losses: 0.762495, 0.757859\n",
      "i: 121, loss: 1.39333, losses: 0.694546, 0.698781\n",
      "i: 122, loss: 1.53874, losses: 0.768385, 0.770352\n",
      "i: 123, loss: 1.54505, losses: 0.773559, 0.77149\n",
      "i: 124, loss: 1.58753, losses: 0.793679, 0.793853\n",
      "i: 125, loss: 1.48353, losses: 0.744497, 0.739037\n",
      "i: 126, loss: 1.43319, losses: 0.717085, 0.716109\n",
      "i: 127, loss: 1.52374, losses: 0.763647, 0.760097\n",
      "i: 128, loss: 1.45922, losses: 0.728916, 0.730302\n",
      "i: 129, loss: 1.39705, losses: 0.696167, 0.700883\n",
      "i: 130, loss: 1.5015, losses: 0.751404, 0.750096\n",
      "i: 131, loss: 1.38279, losses: 0.688056, 0.694738\n",
      "i: 132, loss: 1.40562, losses: 0.698885, 0.706731\n",
      "i: 133, loss: 1.36677, losses: 0.67847, 0.688303\n",
      "i: 134, loss: 1.36976, losses: 0.677351, 0.692405\n",
      "i: 135, loss: 1.4804, losses: 0.729673, 0.750725\n",
      "i: 136, loss: 1.41226, losses: 0.698435, 0.713824\n",
      "i: 137, loss: 1.43467, losses: 0.708005, 0.726666\n",
      "i: 138, loss: 1.4493, losses: 0.722167, 0.727136\n",
      "i: 139, loss: 1.55021, losses: 0.772321, 0.777888\n",
      "i: 140, loss: 1.35667, losses: 0.672673, 0.683993\n",
      "i: 141, loss: 1.44589, losses: 0.718643, 0.727251\n",
      "i: 142, loss: 1.53622, losses: 0.766692, 0.769531\n",
      "i: 143, loss: 1.40112, losses: 0.695884, 0.705232\n",
      "i: 144, loss: 1.55055, losses: 0.772599, 0.777952\n",
      "i: 145, loss: 1.47754, losses: 0.735639, 0.741896\n",
      "i: 146, loss: 1.39764, losses: 0.693205, 0.70444\n",
      "i: 147, loss: 1.48822, losses: 0.737839, 0.750378\n",
      "i: 148, loss: 1.43329, losses: 0.713143, 0.720145\n",
      "i: 149, loss: 1.38962, losses: 0.691697, 0.697923\n",
      "i: 150, loss: 1.52547, losses: 0.762622, 0.76285\n",
      "i: 151, loss: 1.4165, losses: 0.707893, 0.708602\n",
      "i: 152, loss: 1.4244, losses: 0.710611, 0.713788\n",
      "i: 153, loss: 1.34626, losses: 0.670113, 0.676151\n",
      "i: 154, loss: 1.36058, losses: 0.673313, 0.687272\n",
      "i: 155, loss: 1.41535, losses: 0.7011, 0.714252\n",
      "i: 156, loss: 1.34547, losses: 0.665517, 0.679957\n",
      "i: 157, loss: 1.4332, losses: 0.711485, 0.721718\n",
      "i: 158, loss: 1.42955, losses: 0.712095, 0.717459\n"
     ]
    },
    {
     "name": "stdout",
     "output_type": "stream",
     "text": [
      "i: 159, loss: 1.51835, losses: 0.757589, 0.760762\n",
      "i: 160, loss: 1.34876, losses: 0.66833, 0.680428\n",
      "i: 161, loss: 1.46731, losses: 0.734204, 0.733102\n",
      "i: 162, loss: 1.39068, losses: 0.692514, 0.698164\n",
      "i: 163, loss: 1.44124, losses: 0.719414, 0.721822\n",
      "i: 164, loss: 1.46175, losses: 0.725592, 0.736154\n",
      "i: 165, loss: 1.35052, losses: 0.668193, 0.682325\n",
      "i: 166, loss: 1.43388, losses: 0.7135, 0.720385\n",
      "i: 167, loss: 1.46517, losses: 0.729817, 0.735351\n",
      "i: 168, loss: 1.44114, losses: 0.720261, 0.720879\n",
      "i: 169, loss: 1.34932, losses: 0.668622, 0.680697\n",
      "i: 170, loss: 1.36042, losses: 0.670536, 0.689887\n",
      "i: 171, loss: 1.62498, losses: 0.812616, 0.812361\n",
      "i: 172, loss: 1.38748, losses: 0.685174, 0.70231\n",
      "i: 173, loss: 1.3622, losses: 0.673932, 0.688271\n",
      "i: 174, loss: 1.48116, losses: 0.732064, 0.749093\n",
      "i: 175, loss: 1.4685, losses: 0.730137, 0.738364\n",
      "i: 176, loss: 1.6336, losses: 0.815378, 0.818227\n",
      "i: 177, loss: 1.37863, losses: 0.684136, 0.694493\n",
      "i: 178, loss: 1.49217, losses: 0.748348, 0.743825\n",
      "i: 179, loss: 1.35302, losses: 0.67293, 0.680095\n",
      "i: 180, loss: 1.53315, losses: 0.76517, 0.767982\n",
      "i: 181, loss: 1.46104, losses: 0.72779, 0.733252\n",
      "i: 182, loss: 1.38832, losses: 0.6889, 0.699417\n",
      "i: 183, loss: 1.50394, losses: 0.749344, 0.754597\n",
      "i: 184, loss: 1.4185, losses: 0.707917, 0.71058\n",
      "i: 185, loss: 1.44356, losses: 0.71973, 0.723828\n",
      "i: 186, loss: 1.4654, losses: 0.726596, 0.738807\n",
      "i: 187, loss: 1.45396, losses: 0.725248, 0.728712\n",
      "i: 188, loss: 1.59904, losses: 0.799775, 0.799269\n",
      "i: 189, loss: 1.35839, losses: 0.67453, 0.683864\n",
      "i: 190, loss: 1.62813, losses: 0.812782, 0.815349\n",
      "i: 191, loss: 1.35841, losses: 0.671723, 0.686692\n",
      "i: 192, loss: 1.55362, losses: 0.77332, 0.780298\n",
      "i: 193, loss: 1.35452, losses: 0.671576, 0.682947\n",
      "i: 194, loss: 1.47419, losses: 0.734914, 0.739272\n",
      "i: 195, loss: 1.34449, losses: 0.665687, 0.678798\n",
      "i: 196, loss: 1.59638, losses: 0.799174, 0.797208\n",
      "i: 197, loss: 1.51906, losses: 0.756563, 0.762492\n",
      "i: 198, loss: 1.52584, losses: 0.759249, 0.766586\n",
      "i: 199, loss: 1.50462, losses: 0.748419, 0.756202\n",
      "i: 200, loss: 1.47149, losses: 0.733748, 0.737737\n",
      "200it [00:33,  6.06it/s]\n",
      "Generating video...\n",
      "  0%|                                                    | 0/20 [00:00<?, ?it/s]ffmpeg version 4.2.2 Copyright (c) 2000-2019 the FFmpeg developers\n",
      "  built with gcc 7.3.0 (crosstool-NG 1.23.0.449-a04d0)\n",
      "  configuration: --prefix=/root/anaconda3/envs/replearn --cc=/tmp/build/80754af9/ffmpeg_1587154242452/_build_env/bin/x86_64-conda_cos6-linux-gnu-cc --disable-doc --enable-avresample --enable-gmp --enable-hardcoded-tables --enable-libfreetype --enable-libvpx --enable-pthreads --enable-libopus --enable-postproc --enable-pic --enable-pthreads --enable-shared --enable-static --enable-version3 --enable-zlib --enable-libmp3lame --disable-nonfree --enable-gpl --enable-gnutls --disable-openssl --enable-libopenh264 --enable-libx264\n",
      "  libavutil      56. 31.100 / 56. 31.100\n",
      "  libavcodec     58. 54.100 / 58. 54.100\n",
      "  libavformat    58. 29.100 / 58. 29.100\n",
      "  libavdevice    58.  8.100 / 58.  8.100\n",
      "  libavfilter     7. 57.100 /  7. 57.100\n",
      "  libavresample   4.  0.  0 /  4.  0.  0\n",
      "  libswscale      5.  5.100 /  5.  5.100\n",
      "  libswresample   3.  5.100 /  3.  5.100\n",
      "  libpostproc    55.  5.100 / 55.  5.100\n",
      "100%|███████████████████████████████████████████| 20/20 [00:00<00:00, 47.94it/s]\n",
      "Input #0, image2pipe, from 'pipe:':\n",
      "  Duration: N/A, bitrate: N/A\n",
      "    Stream #0:0: Video: png, rgb24(pc), 352x176, 10 fps, 10 tbr, 10 tbn, 10 tbc\n",
      "Stream mapping:\n",
      "  Stream #0:0 -> #0:0 (png (native) -> h264 (libx264))\n",
      "\u001b[1;36m[libx264 @ 0x557552e25b00] \u001b[0musing cpu capabilities: MMX2 SSE2Fast SSSE3 SSE4.2 AVX FMA3 BMI2 AVX2\n",
      "\u001b[1;36m[libx264 @ 0x557552e25b00] \u001b[0mprofile High, level 2.1, 4:2:0, 8-bit\n",
      "\u001b[1;36m[libx264 @ 0x557552e25b00] \u001b[0m264 - core 157 - H.264/MPEG-4 AVC codec - Copyleft 2003-2018 - http://www.videolan.org/x264.html - options: cabac=1 ref=16 deblock=1:0:0 analyse=0x3:0x133 me=umh subme=10 psy=1 psy_rd=1.00:0.00 mixed_ref=1 me_range=24 chroma_me=1 trellis=2 8x8dct=1 cqm=0 deadzone=21,11 fast_pskip=1 chroma_qp_offset=-2 threads=5 lookahead_threads=1 sliced_threads=0 nr=0 decimate=1 interlaced=0 bluray_compat=0 constrained_intra=0 bframes=8 b_pyramid=2 b_adapt=2 b_bias=0 direct=3 weightb=1 open_gop=0 weightp=2 keyint=250 keyint_min=10 scenecut=40 intra_refresh=0 rc_lookahead=60 rc=crf mbtree=1 crf=17.0 qcomp=0.60 qpmin=0 qpmax=69 qpstep=4 ip_ratio=1.40 aq=1:1.00\n",
      "Output #0, mp4, to 'output.mp4':\n",
      "  Metadata:\n",
      "    comment         : ['office scene in the motion blur style ', ' office scene in the Gaussian blur style']\n",
      "    encoder         : Lavf58.29.100\n",
      "    Stream #0:0: Video: h264 (libx264) (avc1 / 0x31637661), yuv420p, 352x176, q=-1--1, 10 fps, 10240 tbn, 10 tbc\n",
      "    Metadata:\n",
      "      encoder         : Lavc58.54.100 libx264\n",
      "    Side data:\n",
      "      cpb: bitrate max/min/avg: 0/0/0 buffer size: 0 vbv_delay: -1\n",
      "frame=   20 fps=0.0 q=-1.0 Lsize=     139kB time=00:00:01.70 bitrate= 671.2kbits/s speed=8.32x    \n",
      "video:138kB audio:0kB subtitle:0kB other streams:0kB global headers:0kB muxing overhead: 0.822106%\n",
      "\u001b[1;36m[libx264 @ 0x557552e25b00] \u001b[0mframe I:1     Avg QP:18.68  size:  3420\n",
      "\u001b[1;36m[libx264 @ 0x557552e25b00] \u001b[0mframe P:6     Avg QP:22.19  size:  7377\n",
      "\u001b[1;36m[libx264 @ 0x557552e25b00] \u001b[0mframe B:13    Avg QP:23.13  size:  7162\n",
      "\u001b[1;36m[libx264 @ 0x557552e25b00] \u001b[0mconsecutive B-frames: 10.0% 10.0% 15.0% 40.0% 25.0%  0.0%  0.0%  0.0%  0.0%\n",
      "\u001b[1;36m[libx264 @ 0x557552e25b00] \u001b[0mmb I  I16..4: 16.1% 60.7% 23.1%\n",
      "\u001b[1;36m[libx264 @ 0x557552e25b00] \u001b[0mmb P  I16..4:  6.3% 51.8% 29.3%  P16..4:  4.6%  5.2%  2.4%  0.4%  0.1%    skip: 0.0%\n",
      "\u001b[1;36m[libx264 @ 0x557552e25b00] \u001b[0mmb B  I16..4:  3.7% 21.2% 24.9%  B16..8: 12.5% 21.9%  9.0%  direct: 6.7%  skip: 0.2%  L0:47.4% L1:26.6% BI:26.0%\n",
      "\u001b[1;36m[libx264 @ 0x557552e25b00] \u001b[0m8x8 transform intra:50.9% inter:83.5%\n",
      "\u001b[1;36m[libx264 @ 0x557552e25b00] \u001b[0mdirect mvs  spatial:38.5% temporal:61.5%\n",
      "\u001b[1;36m[libx264 @ 0x557552e25b00] \u001b[0mcoded y,uvDC,uvAC intra: 88.6% 89.8% 73.8% inter: 85.0% 95.5% 56.6%\n",
      "\u001b[1;36m[libx264 @ 0x557552e25b00] \u001b[0mi16 v,h,dc,p: 10% 51%  0% 39%\n",
      "\u001b[1;36m[libx264 @ 0x557552e25b00] \u001b[0mi8 v,h,dc,ddl,ddr,vr,hd,vl,hu: 24% 44%  2%  2%  5%  6%  7%  4%  7%\n",
      "\u001b[1;36m[libx264 @ 0x557552e25b00] \u001b[0mi4 v,h,dc,ddl,ddr,vr,hd,vl,hu: 12% 53%  2%  3%  5%  5%  7%  4%  9%\n",
      "\u001b[1;36m[libx264 @ 0x557552e25b00] \u001b[0mi8c dc,h,v,p: 16% 54% 17% 12%\n",
      "\u001b[1;36m[libx264 @ 0x557552e25b00] \u001b[0mWeighted P-Frames: Y:33.3% UV:16.7%\n",
      "\u001b[1;36m[libx264 @ 0x557552e25b00] \u001b[0mref P L0: 31.5% 12.4% 27.6% 14.0%  9.9%  2.6%  1.4%  0.4%  0.3%\n",
      "\u001b[1;36m[libx264 @ 0x557552e25b00] \u001b[0mref B L0: 62.0% 19.3%  9.8%  3.6%  3.2%  1.3%  0.5%  0.2%  0.0%  0.0%\n",
      "\u001b[1;36m[libx264 @ 0x557552e25b00] \u001b[0mref B L1: 93.0%  7.0%\n",
      "\u001b[1;36m[libx264 @ 0x557552e25b00] \u001b[0mkb/s:563.16\n"
     ]
    }
   ],
   "source": [
    "from itertools import product\n",
    "\n",
    "for subject, style in zip(subjects, styles):\n",
    "\n",
    "    !python generate.py -i 300 -p f\"{subject} in the style of {style}\" -o f\"text2image-ui/static/images2probe/{subject}_{style}\" -s 64 64 -sd 64"
   ]
  },
  {
   "cell_type": "code",
   "execution_count": 38,
   "id": "6efc1150",
   "metadata": {},
   "outputs": [
    {
     "name": "stdout",
     "output_type": "stream",
     "text": [
      "Working with z of shape (1, 256, 16, 16) = 65536 dimensions.\n",
      "loaded pretrained LPIPS loss from taming/modules/autoencoder/lpips/vgg.pth\n",
      "VQLPIPSWithDiscriminator running with hinge loss.\n",
      "Restored from checkpoints/vqgan_imagenet_f16_16384.ckpt\n",
      "Using device: cuda:0\n",
      "Optimising using: Adam\n",
      "Using text prompts: ['light in a dark room']\n",
      "Using seed: 64\n",
      "i: 0, loss: 0.875065, losses: 0.875065\n",
      "i: 1, loss: 0.870445, losses: 0.870445\n",
      "i: 2, loss: 0.88072, losses: 0.88072\n",
      "i: 3, loss: 0.874117, losses: 0.874117\n",
      "i: 4, loss: 0.864984, losses: 0.864984\n",
      "i: 5, loss: 0.866995, losses: 0.866995\n",
      "i: 6, loss: 0.862277, losses: 0.862277\n",
      "i: 7, loss: 0.85587, losses: 0.85587\n",
      "i: 8, loss: 0.854347, losses: 0.854347\n",
      "i: 9, loss: 0.849277, losses: 0.849277\n",
      "i: 10, loss: 0.84461, losses: 0.84461\n",
      "i: 11, loss: 0.848833, losses: 0.848833\n",
      "i: 12, loss: 0.848234, losses: 0.848234\n",
      "i: 13, loss: 0.840091, losses: 0.840091\n",
      "i: 14, loss: 0.837573, losses: 0.837573\n",
      "i: 15, loss: 0.835073, losses: 0.835073\n",
      "i: 16, loss: 0.82735, losses: 0.82735\n",
      "i: 17, loss: 0.833092, losses: 0.833092\n",
      "i: 18, loss: 0.833542, losses: 0.833542\n",
      "i: 19, loss: 0.827153, losses: 0.827153\n",
      "i: 20, loss: 0.828193, losses: 0.828193\n",
      "i: 21, loss: 0.823769, losses: 0.823769\n",
      "i: 22, loss: 0.824799, losses: 0.824799\n",
      "i: 23, loss: 0.828349, losses: 0.828349\n",
      "i: 24, loss: 0.817402, losses: 0.817402\n",
      "i: 25, loss: 0.821571, losses: 0.821571\n",
      "i: 26, loss: 0.817153, losses: 0.817153\n",
      "i: 27, loss: 0.817818, losses: 0.817818\n",
      "i: 28, loss: 0.822307, losses: 0.822307\n",
      "i: 29, loss: 0.826091, losses: 0.826091\n",
      "i: 30, loss: 0.821074, losses: 0.821074\n",
      "i: 31, loss: 0.814584, losses: 0.814584\n",
      "i: 32, loss: 0.825489, losses: 0.825489\n",
      "i: 33, loss: 0.829325, losses: 0.829325\n",
      "i: 34, loss: 0.821481, losses: 0.821481\n",
      "i: 35, loss: 0.814077, losses: 0.814077\n",
      "i: 36, loss: 0.817935, losses: 0.817935\n",
      "i: 37, loss: 0.829176, losses: 0.829176\n",
      "i: 38, loss: 0.816824, losses: 0.816824\n",
      "i: 39, loss: 0.81444, losses: 0.81444\n",
      "i: 40, loss: 0.810647, losses: 0.810647\n",
      "i: 41, loss: 0.811804, losses: 0.811804\n",
      "i: 42, loss: 0.817105, losses: 0.817105\n",
      "i: 43, loss: 0.809316, losses: 0.809316\n",
      "i: 44, loss: 0.81132, losses: 0.81132\n",
      "i: 45, loss: 0.810619, losses: 0.810619\n",
      "i: 46, loss: 0.810539, losses: 0.810539\n",
      "i: 47, loss: 0.810299, losses: 0.810299\n",
      "i: 48, loss: 0.81312, losses: 0.81312\n",
      "i: 49, loss: 0.811801, losses: 0.811801\n",
      "i: 50, loss: 0.811447, losses: 0.811447\n",
      "i: 51, loss: 0.806978, losses: 0.806978\n",
      "i: 52, loss: 0.824965, losses: 0.824965\n",
      "i: 53, loss: 0.802203, losses: 0.802203\n",
      "i: 54, loss: 0.802231, losses: 0.802231\n",
      "i: 55, loss: 0.802935, losses: 0.802935\n",
      "i: 56, loss: 0.80655, losses: 0.80655\n",
      "i: 57, loss: 0.801304, losses: 0.801304\n",
      "i: 58, loss: 0.799157, losses: 0.799157\n",
      "i: 59, loss: 0.806279, losses: 0.806279\n",
      "i: 60, loss: 0.809362, losses: 0.809362\n",
      "i: 61, loss: 0.802147, losses: 0.802147\n",
      "i: 62, loss: 0.804618, losses: 0.804618\n",
      "i: 63, loss: 0.7979, losses: 0.7979\n",
      "i: 64, loss: 0.805608, losses: 0.805608\n",
      "i: 65, loss: 0.820519, losses: 0.820519\n",
      "i: 66, loss: 0.800277, losses: 0.800277\n",
      "i: 67, loss: 0.801098, losses: 0.801098\n",
      "i: 68, loss: 0.801734, losses: 0.801734\n",
      "i: 69, loss: 0.799335, losses: 0.799335\n",
      "i: 70, loss: 0.809996, losses: 0.809996\n",
      "i: 71, loss: 0.810513, losses: 0.810513\n",
      "i: 72, loss: 0.809091, losses: 0.809091\n",
      "i: 73, loss: 0.806709, losses: 0.806709\n",
      "i: 74, loss: 0.808061, losses: 0.808061\n",
      "i: 75, loss: 0.800532, losses: 0.800532\n",
      "i: 76, loss: 0.815437, losses: 0.815437\n",
      "i: 77, loss: 0.816193, losses: 0.816193\n",
      "i: 78, loss: 0.80491, losses: 0.80491\n",
      "i: 79, loss: 0.813124, losses: 0.813124\n",
      "i: 80, loss: 0.804644, losses: 0.804644\n",
      "i: 81, loss: 0.813921, losses: 0.813921\n",
      "i: 82, loss: 0.79943, losses: 0.79943\n",
      "i: 83, loss: 0.811563, losses: 0.811563\n",
      "i: 84, loss: 0.809786, losses: 0.809786\n",
      "i: 85, loss: 0.798596, losses: 0.798596\n",
      "i: 86, loss: 0.805928, losses: 0.805928\n",
      "i: 87, loss: 0.80124, losses: 0.80124\n",
      "i: 88, loss: 0.803366, losses: 0.803366\n",
      "i: 89, loss: 0.804189, losses: 0.804189\n",
      "i: 90, loss: 0.805558, losses: 0.805558\n",
      "i: 91, loss: 0.802832, losses: 0.802832\n",
      "i: 92, loss: 0.805277, losses: 0.805277\n",
      "i: 93, loss: 0.804124, losses: 0.804124\n",
      "i: 94, loss: 0.798175, losses: 0.798175\n",
      "i: 95, loss: 0.797742, losses: 0.797742\n",
      "i: 96, loss: 0.809944, losses: 0.809944\n",
      "i: 97, loss: 0.79767, losses: 0.79767\n",
      "i: 98, loss: 0.798618, losses: 0.798618\n",
      "i: 99, loss: 0.805628, losses: 0.805628\n",
      "i: 100, loss: 0.795799, losses: 0.795799\n",
      "i: 101, loss: 0.818372, losses: 0.818372\n",
      "i: 102, loss: 0.79432, losses: 0.79432\n",
      "i: 103, loss: 0.794403, losses: 0.794403\n",
      "i: 104, loss: 0.799202, losses: 0.799202\n",
      "i: 105, loss: 0.802215, losses: 0.802215\n",
      "i: 106, loss: 0.800274, losses: 0.800274\n",
      "i: 107, loss: 0.796455, losses: 0.796455\n",
      "i: 108, loss: 0.796123, losses: 0.796123\n",
      "i: 109, loss: 0.814635, losses: 0.814635\n",
      "i: 110, loss: 0.816196, losses: 0.816196\n",
      "i: 111, loss: 0.793158, losses: 0.793158\n",
      "i: 112, loss: 0.802949, losses: 0.802949\n",
      "i: 113, loss: 0.807423, losses: 0.807423\n",
      "i: 114, loss: 0.802445, losses: 0.802445\n",
      "i: 115, loss: 0.820876, losses: 0.820876\n",
      "i: 116, loss: 0.796275, losses: 0.796275\n",
      "i: 117, loss: 0.804289, losses: 0.804289\n",
      "i: 118, loss: 0.805286, losses: 0.805286\n",
      "i: 119, loss: 0.802156, losses: 0.802156\n",
      "i: 120, loss: 0.804688, losses: 0.804688\n",
      "i: 121, loss: 0.795153, losses: 0.795153\n",
      "i: 122, loss: 0.804044, losses: 0.804044\n",
      "i: 123, loss: 0.803611, losses: 0.803611\n",
      "i: 124, loss: 0.817624, losses: 0.817624\n",
      "i: 125, loss: 0.804398, losses: 0.804398\n",
      "i: 126, loss: 0.797387, losses: 0.797387\n",
      "i: 127, loss: 0.801276, losses: 0.801276\n",
      "i: 128, loss: 0.797122, losses: 0.797122\n",
      "i: 129, loss: 0.793345, losses: 0.793345\n",
      "i: 130, loss: 0.800885, losses: 0.800885\n",
      "i: 131, loss: 0.797037, losses: 0.797037\n",
      "i: 132, loss: 0.796389, losses: 0.796389\n",
      "i: 133, loss: 0.792329, losses: 0.792329\n",
      "i: 134, loss: 0.795385, losses: 0.795385\n",
      "i: 135, loss: 0.80675, losses: 0.80675\n",
      "i: 136, loss: 0.800083, losses: 0.800083\n",
      "i: 137, loss: 0.801609, losses: 0.801609\n",
      "i: 138, loss: 0.799548, losses: 0.799548\n",
      "i: 139, loss: 0.802677, losses: 0.802677\n",
      "i: 140, loss: 0.792167, losses: 0.792167\n",
      "i: 141, loss: 0.800603, losses: 0.800603\n",
      "i: 142, loss: 0.804697, losses: 0.804697\n",
      "i: 143, loss: 0.799008, losses: 0.799008\n",
      "i: 144, loss: 0.802415, losses: 0.802415\n",
      "i: 145, loss: 0.799885, losses: 0.799885\n",
      "i: 146, loss: 0.796537, losses: 0.796537\n",
      "i: 147, loss: 0.8025, losses: 0.8025\n",
      "i: 148, loss: 0.800562, losses: 0.800562\n",
      "i: 149, loss: 0.794591, losses: 0.794591\n",
      "i: 150, loss: 0.801175, losses: 0.801175\n",
      "i: 151, loss: 0.799917, losses: 0.799917\n",
      "i: 152, loss: 0.796392, losses: 0.796392\n",
      "i: 153, loss: 0.790973, losses: 0.790973\n",
      "i: 154, loss: 0.793816, losses: 0.793816\n",
      "i: 155, loss: 0.797995, losses: 0.797995\n",
      "i: 156, loss: 0.79205, losses: 0.79205\n",
      "i: 157, loss: 0.799923, losses: 0.799923\n",
      "i: 158, loss: 0.797533, losses: 0.797533\n",
      "i: 159, loss: 0.803643, losses: 0.803643\n",
      "i: 160, loss: 0.792372, losses: 0.792372\n",
      "i: 161, loss: 0.802349, losses: 0.802349\n",
      "i: 162, loss: 0.796941, losses: 0.796941\n",
      "i: 163, loss: 0.802568, losses: 0.802568\n",
      "i: 164, loss: 0.79358, losses: 0.79358\n",
      "i: 165, loss: 0.792479, losses: 0.792479\n",
      "i: 166, loss: 0.799532, losses: 0.799532\n",
      "i: 167, loss: 0.79863, losses: 0.79863\n",
      "i: 168, loss: 0.799409, losses: 0.799409\n",
      "i: 169, loss: 0.790801, losses: 0.790801\n",
      "i: 170, loss: 0.793497, losses: 0.793497\n",
      "i: 171, loss: 0.816671, losses: 0.816671\n",
      "i: 172, loss: 0.799424, losses: 0.799424\n",
      "i: 173, loss: 0.791919, losses: 0.791919\n",
      "i: 174, loss: 0.802602, losses: 0.802602\n",
      "i: 175, loss: 0.798895, losses: 0.798895\n",
      "i: 176, loss: 0.823496, losses: 0.823496\n",
      "i: 177, loss: 0.796457, losses: 0.796457\n",
      "i: 178, loss: 0.803235, losses: 0.803235\n",
      "i: 179, loss: 0.792628, losses: 0.792628\n",
      "i: 180, loss: 0.807054, losses: 0.807054\n",
      "i: 181, loss: 0.803789, losses: 0.803789\n",
      "i: 182, loss: 0.799726, losses: 0.799726\n",
      "i: 183, loss: 0.799032, losses: 0.799032\n",
      "i: 184, loss: 0.795383, losses: 0.795383\n",
      "i: 185, loss: 0.799592, losses: 0.799592\n",
      "i: 186, loss: 0.800087, losses: 0.800087\n",
      "i: 187, loss: 0.802755, losses: 0.802755\n",
      "i: 188, loss: 0.814485, losses: 0.814485\n",
      "i: 189, loss: 0.795325, losses: 0.795325\n",
      "i: 190, loss: 0.818171, losses: 0.818171\n",
      "i: 191, loss: 0.79458, losses: 0.79458\n",
      "i: 192, loss: 0.813687, losses: 0.813687\n",
      "i: 193, loss: 0.792667, losses: 0.792667\n",
      "i: 194, loss: 0.799544, losses: 0.799544\n",
      "i: 195, loss: 0.790797, losses: 0.790797\n",
      "i: 196, loss: 0.806071, losses: 0.806071\n",
      "i: 197, loss: 0.804471, losses: 0.804471\n",
      "i: 198, loss: 0.805054, losses: 0.805054\n",
      "i: 199, loss: 0.805199, losses: 0.805199\n",
      "i: 200, loss: 0.800169, losses: 0.800169\n",
      "i: 201, loss: 0.79923, losses: 0.79923\n",
      "i: 202, loss: 0.796636, losses: 0.796636\n",
      "i: 203, loss: 0.791432, losses: 0.791432\n",
      "i: 204, loss: 0.800344, losses: 0.800344\n",
      "i: 205, loss: 0.794127, losses: 0.794127\n",
      "i: 206, loss: 0.799033, losses: 0.799033\n",
      "i: 207, loss: 0.806192, losses: 0.806192\n",
      "i: 208, loss: 0.799079, losses: 0.799079\n",
      "i: 209, loss: 0.79827, losses: 0.79827\n",
      "i: 210, loss: 0.798569, losses: 0.798569\n",
      "i: 211, loss: 0.795263, losses: 0.795263\n",
      "i: 212, loss: 0.795735, losses: 0.795735\n",
      "i: 213, loss: 0.799088, losses: 0.799088\n",
      "i: 214, loss: 0.80361, losses: 0.80361\n",
      "i: 215, loss: 0.806216, losses: 0.806216\n",
      "i: 216, loss: 0.79944, losses: 0.79944\n",
      "i: 217, loss: 0.79995, losses: 0.79995\n",
      "i: 218, loss: 0.792479, losses: 0.792479\n",
      "i: 219, loss: 0.796188, losses: 0.796188\n",
      "i: 220, loss: 0.793972, losses: 0.793972\n",
      "i: 221, loss: 0.79413, losses: 0.79413\n",
      "i: 222, loss: 0.802891, losses: 0.802891\n",
      "i: 223, loss: 0.790845, losses: 0.790845\n",
      "i: 224, loss: 0.804095, losses: 0.804095\n",
      "i: 225, loss: 0.806936, losses: 0.806936\n",
      "i: 226, loss: 0.790222, losses: 0.790222\n",
      "i: 227, loss: 0.82423, losses: 0.82423\n",
      "i: 228, loss: 0.800704, losses: 0.800704\n",
      "i: 229, loss: 0.800326, losses: 0.800326\n",
      "i: 230, loss: 0.800086, losses: 0.800086\n",
      "i: 231, loss: 0.800545, losses: 0.800545\n",
      "i: 232, loss: 0.804839, losses: 0.804839\n",
      "i: 233, loss: 0.812452, losses: 0.812452\n",
      "i: 234, loss: 0.802004, losses: 0.802004\n",
      "i: 235, loss: 0.797823, losses: 0.797823\n",
      "i: 236, loss: 0.799171, losses: 0.799171\n",
      "i: 237, loss: 0.800447, losses: 0.800447\n",
      "i: 238, loss: 0.800704, losses: 0.800704\n",
      "i: 239, loss: 0.790599, losses: 0.790599\n",
      "i: 240, loss: 0.800037, losses: 0.800037\n",
      "i: 241, loss: 0.794218, losses: 0.794218\n",
      "i: 242, loss: 0.791412, losses: 0.791412\n",
      "i: 243, loss: 0.790207, losses: 0.790207\n",
      "i: 244, loss: 0.793048, losses: 0.793048\n",
      "i: 245, loss: 0.789535, losses: 0.789535\n",
      "i: 246, loss: 0.799986, losses: 0.799986\n",
      "i: 247, loss: 0.808308, losses: 0.808308\n",
      "i: 248, loss: 0.791545, losses: 0.791545\n",
      "i: 249, loss: 0.796732, losses: 0.796732\n",
      "i: 250, loss: 0.796385, losses: 0.796385\n",
      "i: 251, loss: 0.812809, losses: 0.812809\n",
      "i: 252, loss: 0.810028, losses: 0.810028\n",
      "i: 253, loss: 0.797838, losses: 0.797838\n",
      "i: 254, loss: 0.807573, losses: 0.807573\n",
      "i: 255, loss: 0.795664, losses: 0.795664\n",
      "i: 256, loss: 0.804063, losses: 0.804063\n",
      "i: 257, loss: 0.796107, losses: 0.796107\n",
      "i: 258, loss: 0.796885, losses: 0.796885\n",
      "i: 259, loss: 0.800216, losses: 0.800216\n",
      "i: 260, loss: 0.805736, losses: 0.805736\n",
      "i: 261, loss: 0.794775, losses: 0.794775\n",
      "i: 262, loss: 0.792088, losses: 0.792088\n",
      "i: 263, loss: 0.790266, losses: 0.790266\n",
      "i: 264, loss: 0.808963, losses: 0.808963\n",
      "i: 265, loss: 0.810712, losses: 0.810712\n",
      "i: 266, loss: 0.799205, losses: 0.799205\n",
      "i: 267, loss: 0.798871, losses: 0.798871\n",
      "i: 268, loss: 0.792191, losses: 0.792191\n",
      "i: 269, loss: 0.786446, losses: 0.786446\n",
      "i: 270, loss: 0.789063, losses: 0.789063\n",
      "i: 271, loss: 0.801867, losses: 0.801867\n",
      "i: 272, loss: 0.790404, losses: 0.790404\n",
      "i: 273, loss: 0.793225, losses: 0.793225\n",
      "i: 274, loss: 0.792959, losses: 0.792959\n",
      "i: 275, loss: 0.806792, losses: 0.806792\n",
      "i: 276, loss: 0.81006, losses: 0.81006\n",
      "i: 277, loss: 0.794768, losses: 0.794768\n",
      "i: 278, loss: 0.789539, losses: 0.789539\n",
      "i: 279, loss: 0.78898, losses: 0.78898\n",
      "i: 280, loss: 0.797793, losses: 0.797793\n",
      "i: 281, loss: 0.794079, losses: 0.794079\n",
      "i: 282, loss: 0.798621, losses: 0.798621\n",
      "i: 283, loss: 0.786876, losses: 0.786876\n",
      "i: 284, loss: 0.811244, losses: 0.811244\n",
      "i: 285, loss: 0.785801, losses: 0.785801\n",
      "i: 286, loss: 0.801897, losses: 0.801897\n",
      "i: 287, loss: 0.792579, losses: 0.792579\n",
      "i: 288, loss: 0.790394, losses: 0.790394\n",
      "i: 289, loss: 0.788757, losses: 0.788757\n",
      "i: 290, loss: 0.810977, losses: 0.810977\n",
      "i: 291, loss: 0.79457, losses: 0.79457\n",
      "i: 292, loss: 0.803404, losses: 0.803404\n",
      "i: 293, loss: 0.788581, losses: 0.788581\n",
      "i: 294, loss: 0.791689, losses: 0.791689\n",
      "i: 295, loss: 0.798703, losses: 0.798703\n",
      "i: 296, loss: 0.788343, losses: 0.788343\n",
      "i: 297, loss: 0.785057, losses: 0.785057\n",
      "i: 298, loss: 0.810813, losses: 0.810813\n",
      "i: 299, loss: 0.798661, losses: 0.798661\n",
      "i: 300, loss: 0.785908, losses: 0.785908\n",
      "300it [00:55,  5.38it/s]\n",
      "Generating video...\n",
      "  0%|                                                    | 0/30 [00:00<?, ?it/s]ffmpeg version 4.2.2 Copyright (c) 2000-2019 the FFmpeg developers\n",
      "  built with gcc 7.3.0 (crosstool-NG 1.23.0.449-a04d0)\n",
      "  configuration: --prefix=/root/anaconda3/envs/replearn --cc=/tmp/build/80754af9/ffmpeg_1587154242452/_build_env/bin/x86_64-conda_cos6-linux-gnu-cc --disable-doc --enable-avresample --enable-gmp --enable-hardcoded-tables --enable-libfreetype --enable-libvpx --enable-pthreads --enable-libopus --enable-postproc --enable-pic --enable-pthreads --enable-shared --enable-static --enable-version3 --enable-zlib --enable-libmp3lame --disable-nonfree --enable-gpl --enable-gnutls --disable-openssl --enable-libopenh264 --enable-libx264\n",
      "  libavutil      56. 31.100 / 56. 31.100\n",
      "  libavcodec     58. 54.100 / 58. 54.100\n",
      "  libavformat    58. 29.100 / 58. 29.100\n",
      "  libavdevice    58.  8.100 / 58.  8.100\n",
      "  libavfilter     7. 57.100 /  7. 57.100\n",
      "  libavresample   4.  0.  0 /  4.  0.  0\n",
      "  libswscale      5.  5.100 /  5.  5.100\n",
      "  libswresample   3.  5.100 /  3.  5.100\n",
      "  libpostproc    55.  5.100 / 55.  5.100\n",
      "100%|███████████████████████████████████████████| 30/30 [00:00<00:00, 37.26it/s]\n",
      "Input #0, image2pipe, from 'pipe:':\n",
      "  Duration: N/A, bitrate: N/A\n",
      "    Stream #0:0: Video: png, rgb24(pc), 256x256, 10 fps, 10 tbr, 10 tbn, 10 tbc\n",
      "Stream mapping:\n",
      "  Stream #0:0 -> #0:0 (png (native) -> h264 (libx264))\n",
      "\u001b[1;36m[libx264 @ 0x56481d6caa40] \u001b[0musing cpu capabilities: MMX2 SSE2Fast SSSE3 SSE4.2 AVX FMA3 BMI2 AVX2\n",
      "\u001b[1;36m[libx264 @ 0x56481d6caa40] \u001b[0mprofile High, level 2.1, 4:2:0, 8-bit\n",
      "\u001b[1;36m[libx264 @ 0x56481d6caa40] \u001b[0m264 - core 157 - H.264/MPEG-4 AVC codec - Copyleft 2003-2018 - http://www.videolan.org/x264.html - options: cabac=1 ref=16 deblock=1:0:0 analyse=0x3:0x133 me=umh subme=10 psy=1 psy_rd=1.00:0.00 mixed_ref=1 me_range=24 chroma_me=1 trellis=2 8x8dct=1 cqm=0 deadzone=21,11 fast_pskip=1 chroma_qp_offset=-2 threads=8 lookahead_threads=1 sliced_threads=0 nr=0 decimate=1 interlaced=0 bluray_compat=0 constrained_intra=0 bframes=8 b_pyramid=2 b_adapt=2 b_bias=0 direct=3 weightb=1 open_gop=0 weightp=2 keyint=250 keyint_min=10 scenecut=40 intra_refresh=0 rc_lookahead=60 rc=crf mbtree=1 crf=17.0 qcomp=0.60 qpmin=0 qpmax=69 qpstep=4 ip_ratio=1.40 aq=1:1.00\n",
      "Output #0, mp4, to 'output.mp4':\n",
      "  Metadata:\n",
      "    comment         : ['light in a dark room']\n",
      "    encoder         : Lavf58.29.100\n",
      "    Stream #0:0: Video: h264 (libx264) (avc1 / 0x31637661), yuv420p, 256x256, q=-1--1, 10 fps, 10240 tbn, 10 tbc\n",
      "    Metadata:\n",
      "      encoder         : Lavc58.54.100 libx264\n",
      "    Side data:\n",
      "      cpb: bitrate max/min/avg: 0/0/0 buffer size: 0 vbv_delay: -1\n",
      "frame=   30 fps=0.0 q=-1.0 Lsize=     134kB time=00:00:02.70 bitrate= 407.5kbits/s speed=10.4x    \n",
      "video:133kB audio:0kB subtitle:0kB other streams:0kB global headers:0kB muxing overhead: 0.866887%\n",
      "\u001b[1;36m[libx264 @ 0x56481d6caa40] \u001b[0mframe I:1     Avg QP:15.85  size:  2444\n",
      "\u001b[1;36m[libx264 @ 0x56481d6caa40] \u001b[0mframe P:10    Avg QP:18.68  size:  4764\n",
      "\u001b[1;36m[libx264 @ 0x56481d6caa40] \u001b[0mframe B:19    Avg QP:19.67  size:  4505\n",
      "\u001b[1;36m[libx264 @ 0x56481d6caa40] \u001b[0mconsecutive B-frames: 13.3% 26.7%  0.0%  0.0% 16.7% 20.0% 23.3%  0.0%  0.0%\n",
      "\u001b[1;36m[libx264 @ 0x56481d6caa40] \u001b[0mmb I  I16..4: 37.5% 55.1%  7.4%\n",
      "\u001b[1;36m[libx264 @ 0x56481d6caa40] \u001b[0mmb P  I16..4: 15.6% 45.8% 10.7%  P16..4: 13.8%  9.9%  3.5%  0.4%  0.3%    skip: 0.0%\n",
      "\u001b[1;36m[libx264 @ 0x56481d6caa40] \u001b[0mmb B  I16..4:  4.6% 14.5%  4.2%  B16..8: 26.9% 27.4%  7.0%  direct:15.2%  skip: 0.1%  L0:49.0% L1:33.3% BI:17.7%\n",
      "\u001b[1;36m[libx264 @ 0x56481d6caa40] \u001b[0m8x8 transform intra:62.4% inter:75.8%\n",
      "\u001b[1;36m[libx264 @ 0x56481d6caa40] \u001b[0mdirect mvs  spatial:36.8% temporal:63.2%\n",
      "\u001b[1;36m[libx264 @ 0x56481d6caa40] \u001b[0mcoded y,uvDC,uvAC intra: 80.4% 85.3% 52.1% inter: 71.6% 95.5% 23.1%\n",
      "\u001b[1;36m[libx264 @ 0x56481d6caa40] \u001b[0mi16 v,h,dc,p:  8% 11%  0% 81%\n",
      "\u001b[1;36m[libx264 @ 0x56481d6caa40] \u001b[0mi8 v,h,dc,ddl,ddr,vr,hd,vl,hu: 17% 16%  3%  8% 10% 13% 13% 11%  8%\n",
      "\u001b[1;36m[libx264 @ 0x56481d6caa40] \u001b[0mi4 v,h,dc,ddl,ddr,vr,hd,vl,hu: 25% 16%  2%  6% 11% 13%  9%  8%  9%\n",
      "\u001b[1;36m[libx264 @ 0x56481d6caa40] \u001b[0mi8c dc,h,v,p: 12% 29% 25% 34%\n",
      "\u001b[1;36m[libx264 @ 0x56481d6caa40] \u001b[0mWeighted P-Frames: Y:30.0% UV:30.0%\n",
      "\u001b[1;36m[libx264 @ 0x56481d6caa40] \u001b[0mref P L0: 52.9%  8.9% 16.8% 10.3%  5.0%  3.2%  1.8%  0.4%  0.6%\n",
      "\u001b[1;36m[libx264 @ 0x56481d6caa40] \u001b[0mref B L0: 55.4% 20.1% 12.5%  5.6%  2.7%  2.4%  1.0%  0.2%  0.1%  0.1%  0.0%\n",
      "\u001b[1;36m[libx264 @ 0x56481d6caa40] \u001b[0mref B L1: 89.1% 10.9%\n",
      "\u001b[1;36m[libx264 @ 0x56481d6caa40] \u001b[0mkb/s:361.79\n"
     ]
    }
   ],
   "source": [
    "!python generate.py -i 300 -se 1 -p \"light in a dark room\" -s 256 256  -zvid -sd 64"
   ]
  },
  {
   "cell_type": "code",
   "execution_count": null,
   "id": "aee553d9",
   "metadata": {},
   "outputs": [],
   "source": [
    "!python generate.py -i 300 -se 1 -p \"light in a dark room\" -s 256 256  -zvid -sd 64"
   ]
  }
 ],
 "metadata": {
  "kernelspec": {
   "display_name": "Python 3 (ipykernel)",
   "language": "python",
   "name": "python3"
  },
  "language_info": {
   "codemirror_mode": {
    "name": "ipython",
    "version": 3
   },
   "file_extension": ".py",
   "mimetype": "text/x-python",
   "name": "python",
   "nbconvert_exporter": "python",
   "pygments_lexer": "ipython3",
   "version": "3.9.7"
  }
 },
 "nbformat": 4,
 "nbformat_minor": 5
}
